<svg width="48" height="48" viewBox="0 0 48 48" fill="none" xmlns="http://www.w3.org/2000/svg">
<rect width="48" height="48" rx="8" fill="white"/>
<path d="M12 32.6144V29.935C12 29.3139 12.1603 28.7596 12.4809 28.2721C12.8014 27.7846 13.2296 27.4054 13.7653 27.1344C14.9106 26.5742 16.0623 26.1422 17.2203 25.8385C18.3784 25.535 19.6512 25.3833 21.0386 25.3833C22.4262 25.3833 23.6989 25.535 24.8569 25.8385C26.0151 26.1422 27.1669 26.5742 28.3122 27.1344C28.8479 27.4054 29.276 27.7846 29.5966 28.2721C29.9172 28.7596 30.0775 29.3139 30.0775 29.935V32.6144H12ZM32.4879 32.6144V29.7867C32.4879 28.9957 32.2942 28.2418 31.907 27.5249C31.5195 26.8082 30.9699 26.1933 30.2583 25.6801C31.0663 25.8006 31.8335 25.9871 32.5599 26.2396C33.286 26.4922 33.979 26.7908 34.6388 27.1353C35.2615 27.4675 35.7424 27.8591 36.0814 28.3101C36.4205 28.7608 36.59 29.253 36.59 29.7867V32.6144H32.4879ZM21.0386 23.4363C19.8786 23.4363 18.8856 23.0233 18.0597 22.1974C17.2337 21.3712 16.8207 20.3781 16.8207 19.2181C16.8207 18.0582 17.2337 17.0652 18.0597 16.2392C18.8856 15.4131 19.8786 15 21.0386 15C22.1986 15 23.1917 15.4131 24.0178 16.2392C24.8438 17.0652 25.2567 18.0582 25.2567 19.2181C25.2567 20.3781 24.8438 21.3712 24.0178 22.1974C23.1917 23.0233 22.1986 23.4363 21.0386 23.4363ZM31.4448 19.2181C31.4448 20.3781 31.0318 21.3712 30.2058 22.1974C29.3799 23.0233 28.3869 23.4363 27.2269 23.4363C27.0909 23.4363 26.9179 23.4208 26.7078 23.3899C26.4975 23.359 26.3244 23.325 26.1886 23.2881C26.6639 22.7166 27.0292 22.0827 27.2845 21.3863C27.5396 20.6899 27.6671 19.9668 27.6671 19.2169C27.6671 18.4669 27.5369 17.7465 27.2766 17.0557C27.0163 16.3652 26.6536 15.7294 26.1886 15.1485C26.3616 15.0867 26.5346 15.0465 26.7078 15.028C26.8807 15.0093 27.0538 15 27.2269 15C28.3869 15 29.3799 15.4131 30.2058 16.2392C31.0318 17.0652 31.4448 18.0582 31.4448 19.2181ZM13.8075 30.8066H28.2697V29.935C28.2697 29.6833 28.2067 29.4593 28.0808 29.2631C27.955 29.0668 27.7554 28.8953 27.4818 28.7485C26.4899 28.2371 25.4686 27.8496 24.4179 27.5861C23.3672 27.3227 22.2408 27.1911 21.0386 27.1911C19.8366 27.1911 18.7103 27.3227 17.6596 27.5861C16.6088 27.8496 15.5875 28.2371 14.5957 28.7485C14.3221 28.8953 14.1223 29.0668 13.9964 29.2631C13.8704 29.4593 13.8075 29.6833 13.8075 29.935V30.8066ZM21.0386 21.6285C21.7014 21.6285 22.2689 21.3925 22.7409 20.9205C23.2129 20.4484 23.449 19.881 23.449 19.2181C23.449 18.5553 23.2129 17.9879 22.7409 17.5158C22.2689 17.0438 21.7014 16.8078 21.0386 16.8078C20.3757 16.8078 19.8083 17.0438 19.3363 17.5158C18.8642 17.9879 18.6282 18.5553 18.6282 19.2181C18.6282 19.881 18.8642 20.4484 19.3363 20.9205C19.8083 21.3925 20.3757 21.6285 21.0386 21.6285Z" fill="#FA9F43"/>
</svg>
