<svg width="48" height="48" viewBox="0 0 48 48" fill="none" xmlns="http://www.w3.org/2000/svg">
<rect width="48" height="48" rx="8" fill="#7F63FF" fill-opacity="0.11"/>
<path d="M24 37C23.4054 37 22.8798 36.8452 22.423 36.5355C21.9662 36.2257 21.6467 35.8193 21.4644 35.3164H21.037C20.4311 35.3164 19.9093 35.1001 19.4715 34.6674C19.0337 34.2348 18.8148 33.7191 18.8148 33.1203V28.3172C17.32 27.422 16.1438 26.2217 15.2863 24.7164C14.4288 23.2109 14 21.5995 14 19.8822C14 17.1269 14.9696 14.791 16.9089 12.8746C18.8481 10.9582 21.2119 10 24 10C26.7881 10 29.1519 10.9582 31.0911 12.8746C33.0304 14.791 34 17.1269 34 19.8822C34 21.6295 33.5712 23.2484 32.7137 24.7388C31.8562 26.2291 30.68 27.422 29.1852 28.3172V33.1203C29.1852 33.7191 28.9663 34.2348 28.5285 34.6674C28.0907 35.1001 27.5689 35.3164 26.963 35.3164H26.5356C26.3533 35.8193 26.0338 36.2257 25.577 36.5355C25.1202 36.8452 24.5946 37 24 37ZM21.037 33.1203H26.963V31.7463H21.037V33.1203ZM21.037 30.4514H26.963V29.0324H21.037V30.4514ZM20.7407 26.8363H23.1167V22.5738L19.943 19.4375L21.1852 18.2099L24 20.9916L26.8148 18.2099L28.057 19.4375L24.8833 22.5738V26.8363H27.2593C28.5926 26.2019 29.679 25.2686 30.5185 24.0364C31.358 22.8042 31.7778 21.4194 31.7778 19.8822C31.7778 17.735 31.0247 15.9171 29.5185 14.4287C28.0123 12.9403 26.1728 12.196 24 12.196C21.8272 12.196 19.9877 12.9403 18.4815 14.4287C16.9753 15.9171 16.2222 17.735 16.2222 19.8822C16.2222 21.4194 16.642 22.8042 17.4815 24.0364C18.321 25.2686 19.4074 26.2019 20.7407 26.8363Z" fill="#0037CA"/>
</svg>
