<svg width="48" height="48" viewBox="0 0 48 48" fill="none" xmlns="http://www.w3.org/2000/svg">
<rect width="48" height="48" rx="8" fill="white"/>
<path d="M15.4209 22.0276L18.2879 23.2402C18.6422 22.5319 19.0198 21.8475 19.4207 21.187C19.8217 20.5265 20.2636 19.8763 20.7464 19.2364L18.8343 18.8657C18.7674 18.849 18.7027 18.8511 18.6401 18.8719C18.5774 18.8927 18.5209 18.9282 18.4707 18.9784L15.4209 22.0276ZM19.8466 24.4678L23.5483 28.1483C24.519 27.7424 25.5256 27.1812 26.5681 26.4647C27.6107 25.7481 28.6007 24.9213 29.5381 23.9841C30.9999 22.5228 32.1305 20.9307 32.93 19.2077C33.7295 17.4849 34.1251 15.7124 34.1166 13.8899C32.2938 13.8817 30.5195 14.2771 28.7937 15.0761C27.0678 15.8754 25.4739 17.0058 24.0119 18.4674C23.0747 19.4043 22.2477 20.3961 21.5309 21.4427C20.8142 22.4891 20.2527 23.4974 19.8466 24.4678ZM26.1221 21.8622C25.681 21.4212 25.4604 20.8851 25.4604 20.2539C25.4604 19.6224 25.681 19.0862 26.1221 18.6452C26.5632 18.2042 27.1049 17.9837 27.7472 17.9837C28.3897 17.9837 28.9315 18.2042 29.3726 18.6452C29.8137 19.0862 30.0343 19.6224 30.0343 20.2539C30.0343 20.8851 29.8137 21.4212 29.3726 21.8622C28.9315 22.3032 28.3897 22.5237 27.7472 22.5237C27.1049 22.5237 26.5632 22.3032 26.1221 21.8622ZM25.9768 32.5928L29.0266 29.5439C29.0768 29.4937 29.1123 29.4373 29.1332 29.3745C29.154 29.312 29.1562 29.2473 29.1397 29.1804L28.7686 27.2689C28.1287 27.7516 27.4784 28.19 26.8177 28.5841C26.1568 28.9784 25.4721 29.3526 24.7639 29.7068L25.9768 32.5928ZM35.8987 12.1012C36.1776 14.6115 35.8806 16.9907 35.0077 19.239C34.1347 21.4872 32.6983 23.611 30.6983 25.6104L30.4728 25.8358L31.0616 28.7847C31.1402 29.177 31.1227 29.5587 31.0091 29.9295C30.8955 30.3004 30.6992 30.6252 30.4201 30.904L25.3102 36L22.8615 30.2477L17.7543 25.1417L12 22.6813L17.0776 17.5854C17.3565 17.3066 17.6848 17.1082 18.0625 16.9903C18.44 16.8726 18.8251 16.8531 19.2178 16.9317L22.1926 17.5329C22.2343 17.4912 22.2698 17.4537 22.2989 17.4202C22.3282 17.3868 22.3637 17.3491 22.4054 17.3072C24.4054 15.308 26.5264 13.8708 28.7686 12.9955C31.0107 12.1203 33.3874 11.8221 35.8987 12.1012ZM14.2506 29.128C14.8855 28.4933 15.6595 28.1746 16.5726 28.172C17.4855 28.1696 18.2594 28.4858 18.8942 29.1205C19.5291 29.7552 19.8433 30.5288 19.8368 31.4415C19.8301 32.3543 19.5092 33.1281 18.8744 33.7627C18.3815 34.2554 17.5729 34.6784 16.4485 35.0317C15.324 35.385 13.8813 35.6677 12.1202 35.8798C12.3324 34.1195 12.6173 32.6773 12.9748 31.5532C13.3325 30.4291 13.7578 29.6207 14.2506 29.128ZM15.6441 30.5132C15.4101 30.7471 15.1846 31.1496 14.9674 31.7209C14.7502 32.2922 14.6023 32.8751 14.5236 33.4696C15.1186 33.3912 15.7016 33.2447 16.2729 33.0299C16.8443 32.8154 17.247 32.5912 17.4809 32.3573C17.7416 32.0968 17.8786 31.784 17.8921 31.419C17.9053 31.054 17.7816 30.7412 17.521 30.4806C17.2604 30.2201 16.9475 30.0952 16.5824 30.1061C16.2175 30.1169 15.9047 30.2526 15.6441 30.5132Z" fill="#FA9F43"/>
</svg>
