<svg width="48" height="48" viewBox="0 0 48 48" fill="none" xmlns="http://www.w3.org/2000/svg">
<rect width="48" height="48" rx="8" fill="white"/>
<path d="M21.99 23.5C22.33 23.5 22.615 23.3862 22.845 23.1586C23.075 22.931 23.19 22.649 23.19 22.3125C23.19 21.976 23.075 21.694 22.845 21.4664C22.615 21.2388 22.33 21.125 21.99 21.125C21.65 21.125 21.365 21.2388 21.135 21.4664C20.905 21.694 20.79 21.976 20.79 22.3125C20.79 22.649 20.905 22.931 21.135 23.1586C21.365 23.3862 21.65 23.5 21.99 23.5ZM18 23.5C18.34 23.5 18.625 23.3862 18.855 23.1586C19.085 22.931 19.2 22.649 19.2 22.3125C19.2 21.976 19.085 21.694 18.855 21.4664C18.625 21.2388 18.34 21.125 18 21.125C17.66 21.125 17.375 21.2388 17.145 21.4664C16.915 21.694 16.8 21.976 16.8 22.3125C16.8 22.649 16.915 22.931 17.145 23.1586C17.375 23.3862 17.66 23.5 18 23.5ZM26.01 23.5C26.35 23.5 26.635 23.3862 26.865 23.1586C27.095 22.931 27.21 22.649 27.21 22.3125C27.21 21.976 27.095 21.694 26.865 21.4664C26.635 21.2388 26.35 21.125 26.01 21.125C25.67 21.125 25.385 21.2388 25.155 21.4664C24.925 21.694 24.81 21.976 24.81 22.3125C24.81 22.649 24.925 22.931 25.155 23.1586C25.385 23.3862 25.67 23.5 26.01 23.5ZM30 23.5C30.34 23.5 30.625 23.3862 30.855 23.1586C31.085 22.931 31.2 22.649 31.2 22.3125C31.2 21.976 31.085 21.694 30.855 21.4664C30.625 21.2388 30.34 21.125 30 21.125C29.66 21.125 29.375 21.2388 29.145 21.4664C28.915 21.694 28.8 21.976 28.8 22.3125C28.8 22.649 28.915 22.931 29.145 23.1586C29.375 23.3862 29.66 23.5 30 23.5ZM14.4 28.25H33.6V16.375H14.4V28.25ZM24 33C22.02 33 20.325 32.8664 18.915 32.5992C17.505 32.332 16.8 32.0104 16.8 31.6344V30.625H14.4C13.74 30.625 13.175 30.3924 12.705 29.9273C12.235 29.4622 12 28.9031 12 28.25V16.375C12 15.7219 12.235 15.1628 12.705 14.6977C13.175 14.2326 13.74 14 14.4 14H33.6C34.26 14 34.825 14.2326 35.295 14.6977C35.765 15.1628 36 15.7219 36 16.375V28.25C36 28.9031 35.765 29.4622 35.295 29.9273C34.825 30.3924 34.26 30.625 33.6 30.625H31.2V31.6344C31.2 32.0104 30.495 32.332 29.085 32.5992C27.675 32.8664 25.98 33 24 33Z" fill="#FA9F43"/>
</svg>
