<svg width="48" height="48" viewBox="0 0 48 48" fill="none" xmlns="http://www.w3.org/2000/svg">
<rect width="48" height="48" rx="8" fill="#7F63FF" fill-opacity="0.11"/>
<path d="M9.80078 34.1717V31.0771C9.80078 30.3598 9.98591 29.7197 10.3562 29.1566C10.7264 28.5936 11.2209 28.1556 11.8396 27.8426C13.1624 27.1956 14.4925 26.6968 15.8299 26.346C17.1675 25.9955 18.6375 25.8202 20.2398 25.8202C21.8424 25.8202 23.3124 25.9955 24.6498 26.346C25.9874 26.6968 27.3176 27.1956 28.6404 27.8426C29.2591 28.1556 29.7536 28.5936 30.1238 29.1566C30.4941 29.7197 30.6792 30.3598 30.6792 31.0771V34.1717H9.80078ZM33.463 34.1717V30.9059C33.463 29.9923 33.2394 29.1216 32.7921 28.2936C32.3446 27.4659 31.7099 26.7557 30.888 26.163C31.8213 26.3021 32.7073 26.5175 33.5462 26.8092C34.3848 27.101 35.1852 27.4458 35.9473 27.8437C36.6664 28.2274 37.2218 28.6797 37.6134 29.2005C38.005 29.721 38.2008 30.2895 38.2008 30.9059V34.1717H33.463ZM20.2398 23.5715C18.9001 23.5715 17.7533 23.0946 16.7993 22.1407C15.8454 21.1865 15.3685 20.0396 15.3685 18.6998C15.3685 17.3601 15.8454 16.2133 16.7993 15.2594C17.7533 14.3052 18.9001 13.8281 20.2398 13.8281C21.5795 13.8281 22.7265 14.3052 23.6806 15.2594C24.6346 16.2133 25.1115 17.3601 25.1115 18.6998C25.1115 20.0396 24.6346 21.1865 23.6806 22.1407C22.7265 23.0946 21.5795 23.5715 20.2398 23.5715ZM32.2583 18.6998C32.2583 20.0396 31.7814 21.1865 30.8274 22.1407C29.8735 23.0946 28.7267 23.5715 27.387 23.5715C27.2299 23.5715 27.0301 23.5537 26.7874 23.518C26.5445 23.4822 26.3447 23.443 26.1878 23.4003C26.7367 22.7403 27.1586 22.0082 27.4534 21.2039C27.7481 20.3996 27.8954 19.5645 27.8954 18.6984C27.8954 17.8322 27.745 17.0002 27.4444 16.2024C27.1437 15.4048 26.7249 14.6706 26.1878 13.9997C26.3876 13.9282 26.5874 13.8818 26.7874 13.8605C26.9871 13.8389 27.187 13.8281 27.387 13.8281C28.7267 13.8281 29.8735 14.3052 30.8274 15.2594C31.7814 16.2133 32.2583 17.3601 32.2583 18.6998ZM11.8883 32.0838H28.5913V31.0771C28.5913 30.7864 28.5186 30.5278 28.3731 30.3011C28.2279 30.0745 27.9973 29.8764 27.6814 29.7068C26.5358 29.1161 25.3563 28.6686 24.1428 28.3643C22.9292 28.0601 21.6283 27.9081 20.2398 27.9081C18.8516 27.9081 17.5507 28.0601 16.3372 28.3643C15.1237 28.6686 13.9442 29.1161 12.7986 29.7068C12.4827 29.8764 12.2519 30.0745 12.1065 30.3011C11.961 30.5278 11.8883 30.7864 11.8883 31.0771V32.0838ZM20.2398 21.4837C21.0054 21.4837 21.6607 21.2111 22.2059 20.6659C22.7511 20.1208 23.0237 19.4654 23.0237 18.6998C23.0237 17.9343 22.7511 17.2789 22.2059 16.7338C21.6607 16.1886 21.0054 15.916 20.2398 15.916C19.4743 15.916 18.8189 16.1886 18.2737 16.7338C17.7286 17.2789 17.456 17.9343 17.456 18.6998C17.456 19.4654 17.7286 20.1208 18.2737 20.6659C18.8189 21.2111 19.4743 21.4837 20.2398 21.4837Z" fill="#0037CA"/>
</svg>
