<svg width="48" height="48" viewBox="0 0 48 48" fill="none" xmlns="http://www.w3.org/2000/svg">
<rect width="48" height="48" rx="8" fill="#7F63FF" fill-opacity="0.11"/>
<path d="M19.2368 26.8235H28.4737C29.3682 26.8235 30.1247 26.5104 30.7431 25.884C31.3617 25.2579 31.6711 24.5005 31.6711 23.6118C31.6711 22.7231 31.3523 21.9715 30.7147 21.3572C30.0769 20.7426 29.3062 20.4353 28.4026 20.4353H28.2111V20.3538C28.0946 19.1811 27.5859 18.2014 26.6849 17.4148C25.7842 16.6285 24.7226 16.2353 23.5 16.2353C22.6019 16.2353 21.7776 16.476 21.027 16.9574C20.2762 17.4388 19.7133 18.0832 19.3381 18.8905L19.2422 19.0807L19.0372 19.0941C17.9915 19.1412 17.1121 19.5344 16.399 20.2736C15.6856 21.0132 15.3289 21.9024 15.3289 22.9412C15.3289 24.0181 15.7093 24.9344 16.4701 25.6899C17.2306 26.4456 18.1528 26.8235 19.2368 26.8235ZM19.2368 24.7059C18.743 24.7059 18.3236 24.5344 17.9785 24.1913C17.6332 23.8485 17.4605 23.4318 17.4605 22.9412C17.4605 22.4506 17.6332 22.0339 17.9785 21.6911C18.3236 21.348 18.743 21.1765 19.2368 21.1765H20.6714V20.9594C20.7261 20.2227 21.0258 19.6041 21.5706 19.1036C22.1153 18.6032 22.7584 18.3529 23.5 18.3529C24.287 18.3529 24.9575 18.628 25.5115 19.1781C26.0652 19.7285 26.3421 20.3946 26.3421 21.1765V22.5882H28.4737C28.7633 22.5882 29.0134 22.6927 29.224 22.9016C29.4343 23.1108 29.5395 23.3593 29.5395 23.6471C29.5395 23.9348 29.4343 24.1833 29.224 24.3925C29.0134 24.6014 28.7633 24.7059 28.4737 24.7059H19.2368ZM18.5263 36V33.8824H21.3684V31.0588H12.5689C11.851 31.0588 11.2434 30.8118 10.7461 30.3176C10.2487 29.8235 10 29.2199 10 28.5067V14.5521C10 13.8389 10.2487 13.2353 10.7461 12.7412C11.2434 12.2471 11.851 12 12.5689 12H34.4311C35.149 12 35.7566 12.2471 36.2539 12.7412C36.7513 13.2353 37 13.8389 37 14.5521V28.5067C37 29.2199 36.7513 29.8235 36.2539 30.3176C35.7566 30.8118 35.149 31.0588 34.4311 31.0588H25.6316V33.8824H28.4737V36H18.5263ZM12.5689 28.9412H34.4311C34.5405 28.9412 34.6407 28.896 34.7316 28.8056C34.8228 28.7151 34.8684 28.6154 34.8684 28.5067V14.5521C34.8684 14.4434 34.8228 14.3439 34.7316 14.2535C34.6407 14.1629 34.5405 14.1176 34.4311 14.1176H12.5689C12.4595 14.1176 12.3593 14.1629 12.2684 14.2535C12.1772 14.3439 12.1316 14.4434 12.1316 14.5521V28.5067C12.1316 28.6154 12.1772 28.7151 12.2684 28.8056C12.3593 28.896 12.4595 28.9412 12.5689 28.9412Z" fill="#0037CA"/>
</svg>
