<svg width="48" height="48" viewBox="0 0 48 48" fill="none" xmlns="http://www.w3.org/2000/svg">
<rect width="48" height="48" rx="8" fill="#7F63FF" fill-opacity="0.11"/>
<path d="M16.0234 37V31.4842C14.7493 30.2983 13.7602 28.9391 13.0561 27.4067C12.352 25.8741 12 24.2792 12 22.622C12 19.3937 13.1083 16.6496 15.325 14.3899C17.5414 12.13 20.2329 11 23.3995 11C26.0044 11 28.3337 11.7944 30.3874 13.3831C32.4414 14.9716 33.7752 17.0326 34.389 19.566L35.9558 25.8806C36.0564 26.2708 35.9854 26.6251 35.7429 26.9435C35.5006 27.2619 35.1774 27.4211 34.7732 27.4211H32.1168V31.7894C32.1168 32.4697 31.8794 33.0521 31.4047 33.5365C30.9299 34.0209 30.3592 34.2632 29.6924 34.2632H26.7523V37H24.7406V32.2105H29.6924C29.8129 32.2105 29.9118 32.1711 29.9891 32.0922C30.0665 32.0132 30.1051 31.9123 30.1051 31.7894V25.3684H33.7262L32.4521 20.0658C31.938 17.9817 30.8385 16.2918 29.1536 14.9961C27.4685 13.7005 25.5505 13.0526 23.3995 13.0526C20.8067 13.0526 18.5938 13.9776 16.761 15.8274C14.9281 17.6773 14.0117 19.9269 14.0117 22.5762C14.0117 23.9425 14.2855 25.2405 14.8331 26.47C15.3807 27.6995 16.1575 28.7924 17.1633 29.7487L18.035 30.5684V37H16.0234ZM22.3551 27.8158H24.4439L24.5935 26.3291C24.8583 26.2606 25.1064 26.1611 25.3378 26.0304C25.5689 25.8995 25.7662 25.7376 25.9296 25.5446L27.2398 26.1631L28.2842 24.35L27.1238 23.4684C27.2199 23.1894 27.268 22.9105 27.268 22.6316C27.268 22.3526 27.2199 22.0737 27.1238 21.7948L28.2842 20.9132L27.2398 19.1L25.9296 19.7186C25.7662 19.5256 25.5689 19.3637 25.3378 19.2328C25.1064 19.1021 24.8583 19.0025 24.5935 18.9341L24.4439 17.4473H22.3551L22.2056 18.9341C21.9407 19.0025 21.6926 19.1021 21.4613 19.2328C21.2302 19.3637 21.0329 19.5256 20.8695 19.7186L19.5592 19.1L18.5148 20.9132L19.6752 21.7948C19.5791 22.0737 19.5311 22.3526 19.5311 22.6316C19.5311 22.9105 19.5791 23.1894 19.6752 23.4684L18.5148 24.35L19.5592 26.1631L20.8695 25.5446C21.0329 25.7376 21.2302 25.8995 21.4613 26.0304C21.6926 26.1611 21.9407 26.2606 22.2056 26.3291L22.3551 27.8158ZM23.3989 24.9343C22.7717 24.9343 22.2389 24.7103 21.8006 24.2624C21.362 23.8145 21.1428 23.2706 21.1428 22.6309C21.1428 21.9909 21.3623 21.4473 21.8012 21.0001C22.2402 20.5526 22.7732 20.3289 23.4002 20.3289C24.0274 20.3289 24.5602 20.5528 24.9985 21.0008C25.437 21.4487 25.6563 21.9925 25.6563 22.6323C25.6563 23.2722 25.4368 23.8158 24.9978 24.2631C24.5588 24.7106 24.0258 24.9343 23.3989 24.9343Z" fill="#0037CA"/>
</svg>
