<svg width="48" height="48" viewBox="0 0 48 48" fill="none" xmlns="http://www.w3.org/2000/svg">
<rect width="48" height="48" rx="8" fill="white"/>
<path d="M17.8379 35L16.5824 33.723L24.3906 25.7619L28.5606 30.0035L34.7261 23.732L36 25.0278L28.5606 32.5763L24.3906 28.3347L17.8379 35ZM14.1538 33.6018C13.5519 33.6018 13.0425 33.3897 12.6255 32.9656C12.2085 32.5414 12 32.0232 12 31.411V15.1908C12 14.5786 12.2085 14.0604 12.6255 13.6362C13.0425 13.2121 13.5519 13 14.1538 13H30.1002C30.702 13 31.2114 13.2121 31.6284 13.6362C32.0454 14.0604 32.2539 14.5786 32.2539 15.1908V20.2806H13.7871V31.411C13.7871 31.5044 13.8253 31.5898 13.9018 31.6674C13.978 31.7451 14.062 31.784 14.1538 31.784V33.6018ZM13.7871 18.4628H30.4668V15.1908C30.4668 15.0974 30.4286 15.012 30.3521 14.9344C30.2759 14.8567 30.1919 14.8178 30.1002 14.8178H14.1538C14.062 14.8178 13.978 14.8567 13.9018 14.9344C13.8253 15.012 13.7871 15.0974 13.7871 15.1908V18.4628Z" fill="#FA9F43"/>
</svg>
