<svg width="48" height="48" viewBox="0 0 48 48" fill="none" xmlns="http://www.w3.org/2000/svg">
<rect width="48" height="48" rx="8" fill="white"/>
<path d="M17.5059 29.1448L21.8118 24.8524L24.6353 27.6759L30 22.3331V25.0588H32.1176V18.7059H25.7647V20.8235H28.4905L24.6353 24.6787L21.8118 21.8552L16.0316 27.6706L17.5059 29.1448ZM14.5521 36C13.8389 36 13.2353 35.7529 12.7412 35.2588C12.2471 34.7647 12 34.1611 12 33.4479V14.5521C12 13.8389 12.2471 13.2353 12.7412 12.7412C13.2353 12.2471 13.8389 12 14.5521 12H33.4479C34.1611 12 34.7647 12.2471 35.2588 12.7412C35.7529 13.2353 36 13.8389 36 14.5521V33.4479C36 34.1611 35.7529 34.7647 35.2588 35.2588C34.7647 35.7529 34.1611 36 33.4479 36H14.5521ZM14.5521 33.8824H33.4479C33.5566 33.8824 33.6561 33.8371 33.7465 33.7465C33.8371 33.6561 33.8824 33.5566 33.8824 33.4479V14.5521C33.8824 14.4434 33.8371 14.3439 33.7465 14.2535C33.6561 14.1629 33.5566 14.1176 33.4479 14.1176H14.5521C14.4434 14.1176 14.3439 14.1629 14.2535 14.2535C14.1629 14.3439 14.1176 14.4434 14.1176 14.5521V33.4479C14.1176 33.5566 14.1629 33.6561 14.2535 33.7465C14.3439 33.8371 14.4434 33.8824 14.5521 33.8824Z" fill="#FA9F43"/>
</svg>
