<svg width="48" height="48" viewBox="0 0 48 48" fill="none" xmlns="http://www.w3.org/2000/svg">
<rect width="48" height="48" rx="8" fill="white"/>
<path d="M16.1053 22.6396L12 20.2955V15.6073L16.1053 13.2632L20.2105 15.6073V20.2955L16.1053 22.6396ZM16.1053 20.4632L18.3158 19.2073V16.6955L16.1053 15.4396L13.8947 16.6955V19.2073L16.1053 20.4632ZM29.5383 23.1815V20.9855L33.4737 23.2835V31.7612L26.2105 36L18.9474 31.7612V23.2835L22.8824 20.9855V23.1815L20.8421 24.3717V30.6742L26.2105 33.792L31.5789 30.6742V24.3717L29.5383 23.1815ZM25.2632 26.5263V12H36L33.6922 15.4737L36 18.9474H27.1579V26.5263H25.2632Z" fill="#FA9F43"/>
</svg>
