<svg width="48" height="48" viewBox="0 0 48 48" fill="none" xmlns="http://www.w3.org/2000/svg">
<rect width="48" height="48" rx="8" fill="white"/>
<path d="M21.1974 30.3333H32.3816V22.5383H21.1974V30.3333ZM13.3786 34C12.7139 34 12.1513 33.7667 11.6908 33.3C11.2303 32.8333 11 32.2632 11 31.5897V16.4103C11 15.7368 11.2303 15.1667 11.6908 14.7C12.1513 14.2333 12.7139 14 13.3786 14H33.6214C34.2861 14 34.8487 14.2333 35.3092 14.7C35.7697 15.1667 36 15.7368 36 16.4103V31.5897C36 32.2632 35.7697 32.8333 35.3092 33.3C34.8487 33.7667 34.2861 34 33.6214 34H13.3786ZM13.3786 32H33.6214C33.7227 32 33.8155 31.9572 33.8997 31.8717C33.9841 31.7863 34.0263 31.6923 34.0263 31.5897V16.4103C34.0263 16.3077 33.9841 16.2137 33.8997 16.1283C33.8155 16.0428 33.7227 16 33.6214 16H13.3786C13.2773 16 13.1845 16.0428 13.1003 16.1283C13.0159 16.2137 12.9737 16.3077 12.9737 16.4103V31.5897C12.9737 31.6923 13.0159 31.7863 13.1003 31.8717C13.1845 31.9572 13.2773 32 13.3786 32Z" fill="#FA9F43"/>
</svg>
