<svg width="36" height="36" viewBox="0 0 36 36" fill="none" xmlns="http://www.w3.org/2000/svg">
<rect width="36" height="36" rx="18" fill="white"/>
<path d="M18 8.06104C12.478 8.06104 8.00098 12.538 8.00098 18.06C8.00098 23.05 11.657 27.186 16.438 27.939V20.951H13.898V18.06H16.438V15.857C16.438 13.349 17.931 11.966 20.214 11.966C21.308 11.966 22.454 12.161 22.454 12.161V14.62H21.19C19.95 14.62 19.562 15.392 19.562 16.183V18.058H22.333L21.89 20.949H19.562V27.937C24.343 27.188 27.999 23.051 27.999 18.06C27.999 12.538 23.522 8.06104 18 8.06104Z" fill="#0037CA"/>
</svg>
