<svg width="36" height="35" viewBox="0 0 36 35" fill="none" xmlns="http://www.w3.org/2000/svg">
<rect width="36" height="35" rx="17.5" fill="white"/>
<path d="M17.9922 12.3481C15.1557 12.3481 12.8578 14.6435 12.8578 17.4745C12.8578 20.3066 15.1557 22.602 17.9922 22.602C20.8265 22.602 23.1266 20.3066 23.1266 17.4745C23.1266 14.6435 20.8265 12.3481 17.9922 12.3481ZM17.9922 20.8056C16.1497 20.8056 14.6559 19.3142 14.6559 17.4756C14.6559 15.636 16.1497 14.1456 17.9922 14.1456C19.8347 14.1456 21.3263 15.636 21.3263 17.4756C21.3263 19.3142 19.8347 20.8056 17.9922 20.8056Z" fill="url(#paint0_linear_3032_848)"/>
<path d="M23.331 13.355C23.9922 13.355 24.5282 12.8198 24.5282 12.1596C24.5282 11.4994 23.9922 10.9642 23.331 10.9642C22.6697 10.9642 22.1337 11.4994 22.1337 12.1596C22.1337 12.8198 22.6697 13.355 23.331 13.355Z" fill="url(#paint1_linear_3032_848)"/>
<path d="M27.4702 10.9442C26.9494 9.60357 25.8887 8.54347 24.546 8.02562C23.7697 7.73398 22.9489 7.57762 22.1182 7.55988C21.0486 7.51331 20.7099 7.5 17.9978 7.5C15.2857 7.5 14.938 7.5 13.8774 7.55988C13.0489 7.57651 12.2281 7.73287 11.4518 8.02562C10.108 8.54347 9.04731 9.60357 8.52754 10.9442C8.23545 11.7204 8.07885 12.5388 8.06219 13.3683C8.01444 14.435 8 14.7732 8 17.4823C8 20.1902 8 20.535 8.06219 21.5963C8.07885 22.4257 8.23545 23.2441 8.52754 24.0214C9.04842 25.3609 10.1091 26.421 11.4529 26.94C12.2259 27.2416 13.0466 27.4124 13.8796 27.439C14.9491 27.4856 15.2879 27.5 18 27.5C20.7121 27.5 21.0598 27.5 22.1204 27.439C22.95 27.4224 23.7708 27.2649 24.5482 26.9744C25.8909 26.4543 26.9516 25.3953 27.4725 24.0547C27.7645 23.2784 27.9211 22.4601 27.9378 21.6306C27.9856 20.5639 28 20.2257 28 17.5166C28 14.8076 28 14.4639 27.9378 13.4026C27.9234 12.5621 27.7679 11.7293 27.4702 10.9442ZM26.1175 21.5142C26.1097 22.1529 25.9942 22.7861 25.7721 23.386C25.4334 24.2587 24.7437 24.9484 23.8707 25.2833C23.2765 25.504 22.6502 25.6193 22.016 25.6282C20.9609 25.677 20.6633 25.6892 17.9578 25.6892C15.2501 25.6892 14.9736 25.6892 13.8985 25.6282C13.2665 25.6204 12.6379 25.504 12.0449 25.2833C11.1686 24.9495 10.4745 24.2598 10.1357 23.386C9.91804 22.7939 9.80031 22.1673 9.79032 21.5353C9.74256 20.4818 9.73145 20.1846 9.73145 17.4834C9.73145 14.781 9.73145 14.5049 9.79032 13.4304C9.79809 12.7916 9.91359 12.1596 10.1357 11.5597C10.4745 10.6847 11.1686 9.99612 12.0449 9.66123C12.6379 9.44167 13.2665 9.32524 13.8985 9.31637C14.9547 9.26868 15.2512 9.25538 17.9578 9.25538C20.6644 9.25538 20.942 9.25538 22.016 9.31637C22.6502 9.32413 23.2765 9.44056 23.8707 9.66123C24.7437 9.99723 25.4334 10.687 25.7721 11.5597C25.9898 12.1518 26.1075 12.7783 26.1175 13.4104C26.1653 14.465 26.1775 14.761 26.1775 17.4634C26.1775 20.1647 26.1775 20.4552 26.1297 21.5153H26.1175V21.5142Z" fill="url(#paint2_linear_3032_848)"/>
<defs>
<linearGradient id="paint0_linear_3032_848" x1="18" y1="7.5" x2="18" y2="27.5" gradientUnits="userSpaceOnUse">
<stop stop-color="#9A1CB0"/>
<stop offset="1" stop-color="#C40C84"/>
</linearGradient>
<linearGradient id="paint1_linear_3032_848" x1="18" y1="7.5" x2="18" y2="27.5" gradientUnits="userSpaceOnUse">
<stop stop-color="#9A1CB0"/>
<stop offset="1" stop-color="#C40C84"/>
</linearGradient>
<linearGradient id="paint2_linear_3032_848" x1="18" y1="7.5" x2="18" y2="27.5" gradientUnits="userSpaceOnUse">
<stop stop-color="#9A1CB0"/>
<stop offset="1" stop-color="#C40C84"/>
</linearGradient>
</defs>
</svg>
