<svg width="41" height="41" viewBox="0 0 41 41" fill="none" xmlns="http://www.w3.org/2000/svg">
<g clip-path="url(#clip0_2913_1034)">
<path d="M15.6002 20.4796H4.22416V20.4636C4.22416 17.3356 5.77616 14.4396 8.37616 12.7036L15.5122 7.94363C16.4482 7.31963 16.6962 6.06363 16.0722 5.12763C15.6802 4.54363 15.0402 4.22363 14.3762 4.22363C13.9922 4.22363 13.6002 4.33563 13.2482 4.56763L6.11216 9.32763C2.39216 11.8076 0.160156 15.9756 0.160156 20.4636V35.9196C0.160156 36.3676 0.520156 36.7356 0.976156 36.7356H15.6002C16.0482 36.7356 16.4162 36.3756 16.4162 35.9196V21.2956C16.4162 20.8396 16.0562 20.4796 15.6002 20.4796ZM39.9842 20.4796H28.6082V20.4636C28.6082 17.3356 30.1602 14.4396 32.7602 12.7036L39.8962 7.94363C40.8322 7.31963 41.0802 6.06363 40.4562 5.12763C40.0642 4.54363 39.4242 4.22363 38.7602 4.22363C38.3762 4.22363 37.9842 4.33563 37.6322 4.56763L30.4962 9.32763C26.7602 11.8156 24.5362 15.9756 24.5362 20.4636V35.9196C24.5362 36.3676 24.8962 36.7356 25.3522 36.7356H39.9842C40.4322 36.7356 40.8002 36.3756 40.8002 35.9196V21.2956C40.8002 20.8396 40.4322 20.4796 39.9842 20.4796Z" fill="#F9ECDE"/>
</g>
<defs>
<clipPath id="clip0_2913_1034">
<rect width="40.96" height="40.96" fill="white"/>
</clipPath>
</defs>
</svg>
