<svg width="48" height="48" viewBox="0 0 48 48" fill="none" xmlns="http://www.w3.org/2000/svg">
<rect width="48" height="48" rx="8" fill="#F6F7FF"/>
<path d="M24.2257 36C22.5884 36 21.0419 35.6846 19.5861 35.0539C18.1301 34.4232 16.8588 33.5644 15.7723 32.4777C14.6856 31.3912 13.8268 30.1179 13.1961 28.6579C12.5654 27.1979 12.25 25.6453 12.25 24C12.25 22.3337 12.5739 20.7705 13.2217 19.3105C13.8695 17.8505 14.7493 16.5805 15.8611 15.5005C16.9726 14.4203 18.2731 13.5668 19.7623 12.9401C21.2514 12.3134 22.8396 12 24.5269 12C26.1059 12 27.6022 12.2693 29.0159 12.8078C30.4298 13.3463 31.6715 14.0917 32.7409 15.0439C33.8106 15.9961 34.6628 17.1277 35.2976 18.4386C35.9325 19.7494 36.25 21.1707 36.25 22.7027C36.25 24.8891 35.6002 26.5992 34.3006 27.8331C33.0011 29.0672 31.3351 29.6842 29.3026 29.6842H27.0144C26.6548 29.6842 26.3674 29.8016 26.152 30.0363C25.9366 30.2713 25.8289 30.5491 25.8289 30.8697C25.8289 31.26 25.9868 31.6657 26.3026 32.0867C26.6184 32.5078 26.7763 32.9912 26.7763 33.5368C26.7763 34.3707 26.5456 34.9898 26.0841 35.394C25.6224 35.798 25.0029 36 24.2257 36ZM17.3026 24.9474C17.7527 24.9474 18.1284 24.7967 18.4297 24.4955C18.7309 24.1942 18.8816 23.8185 18.8816 23.3684C18.8816 22.9183 18.7309 22.5426 18.4297 22.2414C18.1284 21.9401 17.7527 21.7895 17.3026 21.7895C16.8525 21.7895 16.4768 21.9401 16.1756 22.2414C15.8743 22.5426 15.7237 22.9183 15.7237 23.3684C15.7237 23.8185 15.8743 24.1942 16.1756 24.4955C16.4768 24.7967 16.8525 24.9474 17.3026 24.9474ZM21.0921 19.8947C21.5422 19.8947 21.9179 19.7441 22.2192 19.4428C22.5204 19.1416 22.6711 18.7659 22.6711 18.3158C22.6711 17.8657 22.5204 17.49 22.2192 17.1887C21.9179 16.8875 21.5422 16.7368 21.0921 16.7368C20.642 16.7368 20.2663 16.8875 19.9651 17.1887C19.6638 17.49 19.5132 17.8657 19.5132 18.3158C19.5132 18.7659 19.6638 19.1416 19.9651 19.4428C20.2663 19.7441 20.642 19.8947 21.0921 19.8947ZM27.4079 19.8947C27.858 19.8947 28.2337 19.7441 28.5349 19.4428C28.8362 19.1416 28.9868 18.7659 28.9868 18.3158C28.9868 17.8657 28.8362 17.49 28.5349 17.1887C28.2337 16.8875 27.858 16.7368 27.4079 16.7368C26.9578 16.7368 26.5821 16.8875 26.2808 17.1887C25.9796 17.49 25.8289 17.8657 25.8289 18.3158C25.8289 18.7659 25.9796 19.1416 26.2808 19.4428C26.5821 19.7441 26.9578 19.8947 27.4079 19.8947ZM31.1974 24.9474C31.6475 24.9474 32.0232 24.7967 32.3244 24.4955C32.6257 24.1942 32.7763 23.8185 32.7763 23.3684C32.7763 22.9183 32.6257 22.5426 32.3244 22.2414C32.0232 21.9401 31.6475 21.7895 31.1974 21.7895C30.7473 21.7895 30.3716 21.9401 30.0703 22.2414C29.7691 22.5426 29.6184 22.9183 29.6184 23.3684C29.6184 23.8185 29.7691 24.1942 30.0703 24.4955C30.3716 24.7967 30.7473 24.9474 31.1974 24.9474ZM24.2257 34.1053C24.4314 34.1053 24.5921 34.0546 24.7079 33.9534C24.8237 33.8521 24.8816 33.7133 24.8816 33.5368C24.8816 33.2421 24.7237 32.9109 24.4079 32.5434C24.0921 32.1758 23.9342 31.6001 23.9342 30.8163C23.9342 29.9159 24.2395 29.1863 24.85 28.6276C25.4605 28.0688 26.2079 27.7895 27.0921 27.7895H29.3026C30.7894 27.7895 32.0032 27.3539 32.944 26.4827C33.8848 25.6114 34.3553 24.3514 34.3553 22.7027C34.3553 20.1474 33.3755 18.0405 31.4159 16.3822C29.4565 14.7239 27.1602 13.8947 24.5269 13.8947C21.6396 13.8947 19.1874 14.8737 17.1703 16.8316C15.1533 18.7895 14.1447 21.1789 14.1447 24C14.1447 26.8 15.1289 29.1842 17.0974 31.1526C19.0658 33.1211 21.4419 34.1053 24.2257 34.1053Z" fill="#0037CA"/>
</svg>
