<svg width="48" height="48" viewBox="0 0 48 48" fill="none" xmlns="http://www.w3.org/2000/svg">
<rect width="48" height="48" rx="8" fill="#F6F7FF"/>
<path d="M32.9647 25.1282V22.9282H38.25V25.1282H32.9647ZM34.6345 35L30.4065 31.8184L31.739 30.0643L35.967 33.2455L34.6345 35ZM31.6827 17.9361L30.3502 16.1816L34.5782 13L35.9111 14.7545L31.6827 17.9361ZM14.3826 33.5333V27.8078H12.8926C12.1637 27.8078 11.541 27.5487 11.0248 27.0305C10.5083 26.5125 10.25 25.8878 10.25 25.1565V22.9C10.25 22.1686 10.5083 21.5439 11.0248 21.026C11.541 20.5077 12.1637 20.2486 12.8926 20.2486H18.5434L25.0935 16.3282V31.7282L18.5434 27.8078H16.5754V33.5333H14.3826ZM22.9007 27.8192V20.2373L19.1504 22.4486H12.8926C12.7803 22.4486 12.6773 22.4957 12.5835 22.5898C12.4897 22.6839 12.4428 22.7873 12.4428 22.9V25.1565C12.4428 25.2692 12.4897 25.3726 12.5835 25.4667C12.6773 25.5608 12.7803 25.6078 12.8926 25.6078H19.1504L22.9007 27.8192ZM27.1174 28.6031V19.4533C27.6909 19.9742 28.1529 20.6305 28.5032 21.422C28.8538 22.2137 29.0291 23.0825 29.0291 24.0282C29.0291 24.974 28.8538 25.8427 28.5032 26.6345C28.1529 27.426 27.6909 28.0822 27.1174 28.6031Z" fill="#0037CA"/>
</svg>
