<svg width="48" height="48" viewBox="0 0 48 48" fill="none" xmlns="http://www.w3.org/2000/svg">
<rect width="48" height="48" rx="8" fill="#FA9F43"/>
<path d="M13.3918 36V32.8038H17.6528L14.0769 21.1592C13.4596 20.8398 12.9592 20.3764 12.5755 19.7691C12.1918 19.1618 12 18.4906 12 17.7557C12 16.6991 12.3725 15.8002 13.1176 15.0588C13.8624 14.3176 14.7657 13.947 15.8274 13.947C16.7054 13.947 17.4736 14.2066 18.1319 14.726C18.7902 15.2454 19.2408 15.909 19.4836 16.7169H24.2585V14.9857C24.2585 14.6909 24.3584 14.4441 24.5581 14.2451C24.7581 14.0463 25.0062 13.947 25.3024 13.947C25.4842 13.947 25.6537 13.9931 25.8107 14.0855C25.9678 14.1778 26.0891 14.3074 26.1747 14.4743V14.6606L28.6211 12.3916C28.821 12.1927 29.0525 12.0688 29.3156 12.0201C29.5789 11.9712 29.8362 12.0116 30.0877 12.1413L35.4356 14.6076C35.6604 14.7193 35.8205 14.8812 35.9158 15.0934C36.0114 15.3057 36.0101 15.5166 35.912 15.726C35.7995 15.9499 35.6366 16.0933 35.4235 16.1563C35.2103 16.2194 34.9984 16.2021 34.7878 16.1044L29.6437 13.7392L26.3462 16.7862V18.7251L29.6437 21.7028L34.7878 19.3376C34.9984 19.24 35.2139 19.2263 35.4342 19.2964C35.6546 19.3666 35.8139 19.5064 35.912 19.7157C36.0242 19.9394 36.0291 20.1539 35.9266 20.3591C35.8241 20.564 35.6604 20.7225 35.4356 20.8345L30.0877 23.3434C29.8362 23.4731 29.5789 23.5113 29.3156 23.458C29.0525 23.4046 28.821 23.283 28.6211 23.093L26.1747 20.8504V21.037C26.0891 21.1755 25.9678 21.298 25.8107 21.4044C25.6537 21.511 25.4842 21.5644 25.3024 21.5644C25.0062 21.5644 24.7581 21.4649 24.5581 21.2659C24.3584 21.0671 24.2585 20.8204 24.2585 20.5256V18.7944H19.4836C19.4141 19.0411 19.3186 19.2809 19.1973 19.5135C19.0757 19.746 18.932 19.959 18.7662 20.1527L25.618 32.8038H30.7892V36H13.3918ZM15.8274 19.4869C16.3111 19.4869 16.7219 19.3186 17.0598 18.9821C17.3981 18.6455 17.5672 18.2367 17.5672 17.7557C17.5672 17.2744 17.3981 16.8655 17.0598 16.5289C16.7219 16.1926 16.3111 16.0244 15.8274 16.0244C15.3438 16.0244 14.933 16.1926 14.595 16.5289C14.2568 16.8655 14.0877 17.2744 14.0877 17.7557C14.0877 18.2367 14.2568 18.6455 14.595 18.9821C14.933 19.3186 15.3438 19.4869 15.8274 19.4869ZM19.81 32.8038H23.2199L17.0748 21.431C17.0034 21.4754 16.8909 21.5131 16.7373 21.5443C16.584 21.5754 16.4537 21.5821 16.3466 21.5644L19.81 32.8038Z" fill="white"/>
</svg>
