<svg width="48" height="48" viewBox="0 0 48 48" fill="none" xmlns="http://www.w3.org/2000/svg">
<rect width="48" height="48" rx="8" fill="#F6F7FF"/>
<path d="M17.4486 30.9501C16.5467 31.7012 15.6072 32.0414 14.6301 31.9708C13.6528 31.9002 12.804 31.5673 12.0838 30.972C11.3633 30.3765 10.8738 29.5954 10.6153 28.6288C10.3567 27.6625 10.5332 26.6734 11.1446 25.6616L13.853 21.1899C13.2722 20.7176 12.8108 20.134 12.4688 19.4389C12.1267 18.7439 11.9557 17.9927 11.9557 17.1854C11.9557 15.7501 12.4624 14.5271 13.4758 13.5162C14.4893 12.5054 15.7155 12 17.1545 12C18.5935 12 19.8198 12.5054 20.8332 13.5162C21.8469 14.5271 22.3537 15.7501 22.3537 17.1854C22.3537 18.6207 21.8469 19.8438 20.8332 20.8546C19.8198 21.8656 18.5935 22.3712 17.1545 22.3712C16.9061 22.3712 16.6621 22.3548 16.4224 22.3221C16.183 22.2896 15.9552 22.2362 15.7391 22.1619L12.9737 26.7773C12.6779 27.2641 12.5862 27.7428 12.6988 28.2134C12.8113 28.684 13.0437 29.0667 13.3959 29.3615C13.7483 29.6561 14.1684 29.8235 14.6563 29.8638C15.1441 29.904 15.6158 29.7367 16.0714 29.3619L30.5384 17.028C31.4295 16.2769 32.3632 15.9381 33.3396 16.0115C34.3157 16.0847 35.1697 16.4188 35.9015 17.0139C36.633 17.6089 37.128 18.3899 37.3863 19.3567C37.6444 20.3238 37.4632 21.3176 36.8428 22.3384L34.1205 26.8235C34.7013 27.296 35.1628 27.8766 35.5048 28.5653C35.8469 29.2538 36.0179 30.0035 36.0179 30.8146C36.0179 32.2499 35.5079 33.4729 34.4878 34.4838C33.4678 35.4946 32.2416 36 30.8091 36C29.3767 36 28.1538 35.4922 27.1404 34.4767C26.1267 33.4612 25.6198 32.2404 25.6198 30.8142C25.6198 29.3881 26.1276 28.1674 27.1432 27.1521C28.1588 26.1366 29.3794 25.6288 30.8053 25.6288C31.0553 25.6288 31.2984 25.6474 31.5345 25.6846C31.7707 25.7218 31.9967 25.7774 32.2125 25.8515L34.9999 21.2227C35.2957 20.7359 35.3895 20.2574 35.2812 19.7873C35.1729 19.3172 34.9429 18.9344 34.5912 18.6388C34.2394 18.3433 33.8195 18.1733 33.3314 18.1288C32.8431 18.0846 32.3713 18.2544 31.916 18.6381L17.4486 30.9501ZM17.1545 20.2535C18.0057 20.2535 18.7311 19.9544 19.3307 19.356C19.9306 18.7579 20.2306 18.0344 20.2306 17.1854C20.2306 16.3367 19.9306 15.6132 19.3307 15.0148C18.7311 14.4167 18.0057 14.1176 17.1545 14.1176C16.3036 14.1176 15.5782 14.4167 14.9783 15.0148C14.3786 15.6132 14.0788 16.3367 14.0788 17.1854C14.0788 18.0344 14.3786 18.7579 14.9783 19.356C15.5782 19.9544 16.3036 20.2535 17.1545 20.2535ZM30.8038 33.8824C31.6538 33.8824 32.3814 33.5833 32.9868 32.9852C33.5921 32.3868 33.8948 31.6633 33.8948 30.8146C33.8948 29.9656 33.5921 29.2421 32.9868 28.644C32.3814 28.0456 31.6538 27.7465 30.8038 27.7465C29.9536 27.7465 29.2309 28.0456 28.6358 28.644C28.0406 29.2421 27.743 29.9656 27.743 30.8146C27.743 31.6633 28.0406 32.3868 28.6358 32.9852C29.2309 33.5833 29.9536 33.8824 30.8038 33.8824Z" fill="#0037CA"/>
</svg>
