<svg width="48" height="48" viewBox="0 0 48 48" fill="none" xmlns="http://www.w3.org/2000/svg">
<rect width="48" height="48" rx="8" fill="#F6F7FF"/>
<path d="M16.0374 36C14.9854 36 14.0912 35.6318 13.3547 34.8953C12.6182 34.1588 12.25 33.2646 12.25 32.2126V24C12.25 23.4967 12.3442 23.0144 12.5327 22.5529C12.7212 22.0915 12.9935 21.6825 13.3498 21.3258L21.5624 13.1132C21.9261 12.7348 22.3442 12.4547 22.8167 12.2728C23.2892 12.0909 23.7669 12 24.25 12C24.7324 12 25.2042 12.0901 25.6656 12.2704C26.1271 12.4506 26.5466 12.7315 26.9242 13.1132L35.1368 21.3258C35.4916 21.6806 35.7659 22.0889 35.9595 22.5508C36.1532 23.0129 36.25 23.496 36.25 24V32.2126C36.25 33.2646 35.8805 34.1588 35.1414 34.8953C34.4024 35.6318 33.5049 36 32.4492 36H16.0374ZM16.0374 33.8824H32.4492C32.9261 33.8824 33.3259 33.7224 33.6485 33.4024C33.9711 33.0824 34.1324 32.6858 34.1324 32.2126V24C34.1324 23.7722 34.0902 23.5587 34.006 23.3594C33.922 23.1601 33.7958 22.9808 33.6273 22.8215L28.1729 17.3456L25.7242 19.7728L30.7794 24.8146V30.5294H17.7206V24.8146L26.6638 15.858L25.4147 14.6089C25.1994 14.3936 24.9859 14.2579 24.7741 14.2016C24.5624 14.1456 24.3859 14.1176 24.2447 14.1176C24.1035 14.1176 23.9244 14.148 23.7072 14.2087C23.4898 14.2692 23.2734 14.4072 23.0581 14.6227L14.8589 22.8215C14.6996 22.9808 14.578 23.1601 14.494 23.3594C14.4098 23.5587 14.3676 23.7722 14.3676 24V32.2126C14.3676 32.6858 14.5276 33.0824 14.8476 33.4024C15.1676 33.7224 15.5642 33.8824 16.0374 33.8824ZM19.8382 28.4118H28.6618V25.6941L24.25 21.2824L19.8382 25.6941V28.4118Z" fill="#0037CA"/>
</svg>
