<svg width="48" height="48" viewBox="0 0 48 48" fill="none" xmlns="http://www.w3.org/2000/svg">
<rect width="48" height="48" rx="8" fill="#FA9F43"/>
<path d="M15.8557 36V30.9085C14.6347 29.8138 13.6869 28.5592 13.0121 27.1446C12.3374 25.7299 12 24.2577 12 22.728C12 19.748 13.0621 17.2151 15.1864 15.1292C17.3105 13.0431 19.8899 12 22.9245 12C25.4209 12 27.6532 12.7333 29.6213 14.1998C31.5896 15.6661 32.8679 17.5685 33.4561 19.9071L34.9576 25.7359C35.054 26.0961 34.986 26.4232 34.7536 26.7171C34.5214 27.0109 34.2116 27.1579 33.8243 27.1579H31.2786V31.1902C31.2786 31.8182 31.0511 32.3558 30.5961 32.8029C30.1412 33.2501 29.5942 33.4737 28.9552 33.4737H26.1376V36H24.2098V31.5789H28.9552C29.0707 31.5789 29.1655 31.5425 29.2396 31.4697C29.3137 31.3968 29.3507 31.3037 29.3507 31.1902V25.2632H32.8209L31.5999 20.3684C31.1072 18.4446 30.0536 16.8847 28.4389 15.6887C26.824 14.4927 24.9859 13.8947 22.9245 13.8947C20.4397 13.8947 18.3191 14.7485 16.5626 16.4561C14.8061 18.1637 13.9279 20.2402 13.9279 22.6857C13.9279 23.9469 14.1903 25.1451 14.7151 26.28C15.2399 27.4149 15.9842 28.4238 16.9482 29.3065L17.7836 30.0632V36H15.8557ZM21.9237 27.5223H23.9254L24.0687 26.1499C24.3226 26.0867 24.5603 25.9948 24.782 25.8742C25.0035 25.7534 25.1926 25.6039 25.3492 25.4258L26.6048 25.9967L27.6057 24.3231L26.4937 23.5093C26.5858 23.2518 26.6318 22.9943 26.6318 22.7368C26.6318 22.4794 26.5858 22.2219 26.4937 21.9644L27.6057 21.1506L26.6048 19.4769L25.3492 20.0479C25.1926 19.8698 25.0035 19.7203 24.782 19.5995C24.5603 19.4788 24.3226 19.3869 24.0687 19.3238L23.9254 17.9514H21.9237L21.7804 19.3238C21.5265 19.3869 21.2888 19.4788 21.0671 19.5995C20.8456 19.7203 20.6565 19.8698 20.4999 20.0479L19.2443 19.4769L18.2434 21.1506L19.3554 21.9644C19.2633 22.2219 19.2173 22.4794 19.2173 22.7368C19.2173 22.9943 19.2633 23.2518 19.3554 23.5093L18.2434 24.3231L19.2443 25.9967L20.4999 25.4258C20.6565 25.6039 20.8456 25.7534 21.0671 25.8742C21.2888 25.9948 21.5265 26.0867 21.7804 26.1499L21.9237 27.5223ZM22.9239 24.8624C22.3228 24.8624 21.8123 24.6557 21.3922 24.2422C20.9719 23.8287 20.7618 23.3267 20.7618 22.7362C20.7618 22.1455 20.9722 21.6437 21.3929 21.2308C21.8136 20.8178 22.3243 20.6113 22.9252 20.6113C23.5263 20.6113 24.0368 20.818 24.4569 21.2315C24.8771 21.6449 25.0873 22.1469 25.0873 22.7375C25.0873 23.3282 24.8769 23.83 24.4562 24.2428C24.0355 24.6559 23.5248 24.8624 22.9239 24.8624Z" fill="white"/>
</svg>
