<svg width="48" height="48" viewBox="0 0 48 48" fill="none" xmlns="http://www.w3.org/2000/svg">
<rect width="48" height="48" rx="8" fill="#FA9F43"/>
<path d="M12 33V30.625H24V33H12ZM15.6 29.4375C14.94 29.4375 14.375 29.2049 13.905 28.7398C13.435 28.2747 13.2 27.7156 13.2 27.0625V16.375C13.2 15.7219 13.435 15.1628 13.905 14.6977C14.375 14.2326 14.94 14 15.6 14H32.4C33.06 14 33.625 14.2326 34.095 14.6977C34.565 15.1628 34.8 15.7219 34.8 16.375H15.6V27.0625H24V29.4375H15.6ZM33.6 30.625V21.125H28.8V30.625H33.6ZM28.2 33C27.7 33 27.275 32.8268 26.925 32.4805C26.575 32.1341 26.4 31.7135 26.4 31.2188V20.5312C26.4 20.0365 26.575 19.6159 26.925 19.2695C27.275 18.9232 27.7 18.75 28.2 18.75H34.2C34.7 18.75 35.125 18.9232 35.475 19.2695C35.825 19.6159 36 20.0365 36 20.5312V31.2188C36 31.7135 35.825 32.1341 35.475 32.4805C35.125 32.8268 34.7 33 34.2 33H28.2ZM31.2 24.0938C31.46 24.0938 31.675 24.0047 31.845 23.8266C32.015 23.6484 32.1 23.4406 32.1 23.2031C32.1 22.9458 32.015 22.7331 31.845 22.5648C31.675 22.3966 31.46 22.3125 31.2 22.3125C30.96 22.3125 30.75 22.3966 30.57 22.5648C30.39 22.7331 30.3 22.9458 30.3 23.2031C30.3 23.4406 30.39 23.6484 30.57 23.8266C30.75 24.0047 30.96 24.0938 31.2 24.0938Z" fill="white"/>
</svg>
