<svg width="48" height="48" viewBox="0 0 48 48" fill="none" xmlns="http://www.w3.org/2000/svg">
<rect width="48" height="48" rx="8" fill="#F6F7FF"/>
<path d="M14.2951 36C13.6537 36 13.1109 35.7782 12.6665 35.3347C12.2222 34.8911 12 34.3493 12 33.7091V16.7475C12 16.1073 12.2222 15.5654 12.6665 15.1219C13.1109 14.6784 13.6537 14.4566 14.2951 14.4566H25.2843L23.38 16.3575H14.2951C14.1973 16.3575 14.1078 16.3981 14.0266 16.4794C13.9451 16.5605 13.9044 16.6499 13.9044 16.7475V33.7091C13.9044 33.8067 13.9451 33.896 14.0266 33.9771C14.1078 34.0585 14.1973 34.0991 14.2951 34.0991H31.2879C31.3857 34.0991 31.4752 34.0585 31.5564 33.9771C31.6379 33.896 31.6786 33.8067 31.6786 33.7091V24.5604L33.583 22.6596V33.7091C33.583 34.3493 33.3608 34.8911 32.9165 35.3347C32.4721 35.7782 31.9293 36 31.2879 36H14.2951ZM19.6175 28.3964V24.0463L31.1197 12.5655C31.3165 12.3689 31.5329 12.2255 31.7691 12.1353C32.005 12.0451 32.2451 12 32.4893 12C32.7383 12 32.9775 12.0451 33.2069 12.1353C33.4365 12.2255 33.6457 12.3648 33.8344 12.5532L35.4287 14.1398C35.6126 14.3364 35.7538 14.5533 35.8524 14.7905C35.9508 15.0277 36 15.2682 36 15.5119C36 15.7556 35.9581 15.992 35.8743 16.2209C35.7905 16.4501 35.6501 16.6629 35.4531 16.8593L23.9145 28.3964H19.6175ZM21.5219 26.4956H23.1041L31.0169 18.597L30.2259 17.8075L29.3788 16.9936L21.5219 24.8361V26.4956Z" fill="#0037CA"/>
</svg>
