<svg width="48" height="48" viewBox="0 0 48 48" fill="none" xmlns="http://www.w3.org/2000/svg">
<rect width="48" height="48" rx="8" fill="#FA9F43"/>
<path d="M22.6 27.7156L29.6717 20.7157L28.246 19.3045L22.6 24.8935L19.7743 22.0966L18.3487 23.5078L22.6 27.7156ZM24 36C21.1162 35.2215 18.7287 33.5413 16.8373 30.9594C14.9458 28.3774 14 25.4908 14 22.2995V14.7057L24 11L34 14.7057V22.2995C34 25.4908 33.0542 28.3774 31.1627 30.9594C29.2713 33.5413 26.8838 35.2215 24 36ZM24 33.9137C26.3111 33.1878 28.2222 31.7361 29.7333 29.5584C31.2444 27.3807 32 24.9611 32 22.2995V16.0634L24 13.1064L16 16.0634V22.2995C16 24.9611 16.7556 27.3807 18.2667 29.5584C19.7778 31.7361 21.6889 33.1878 24 33.9137Z" fill="white"/>
</svg>
