<svg width="48" height="48" viewBox="0 0 48 48" fill="none" xmlns="http://www.w3.org/2000/svg">
<rect width="48" height="48" rx="8" fill="#F6F7FF"/>
<path d="M34.707 36.19L25.8698 27.3524C25.1663 27.9333 24.3572 28.3879 23.4427 28.7162C22.5281 29.0445 21.582 29.2087 20.6043 29.2087C18.1995 29.2087 16.1642 28.3761 14.4985 26.7108C12.8328 25.0456 12 23.0108 12 20.6064C12 18.2023 12.8326 16.1668 14.4978 14.4999C16.163 12.8333 18.1978 12 20.6022 12C23.0064 12 25.0419 12.8328 26.7087 14.4985C28.3754 16.1642 29.2087 18.1995 29.2087 20.6043C29.2087 21.6092 29.0401 22.5689 28.7028 23.4835C28.3654 24.398 27.9153 25.1935 27.3524 25.8698L36.1896 34.707L34.707 36.19ZM20.6043 27.0985C22.4173 27.0985 23.9528 26.4693 25.2109 25.2109C26.4693 23.9528 27.0985 22.4173 27.0985 20.6043C27.0985 18.7914 26.4693 17.2558 25.2109 15.9977C23.9528 14.7394 22.4173 14.1102 20.6043 14.1102C18.7914 14.1102 17.2558 14.7394 15.9977 15.9977C14.7394 17.2558 14.1102 18.7914 14.1102 20.6043C14.1102 22.4173 14.7394 23.9528 15.9977 25.2109C17.2558 26.4693 18.7914 27.0985 20.6043 27.0985Z" fill="#0037CA"/>
</svg>
