<svg width="48" height="48" viewBox="0 0 48 48" fill="none" xmlns="http://www.w3.org/2000/svg">
<rect width="48" height="48" rx="8" fill="#FA9F43"/>
<path d="M24 28.3421C24.66 28.3421 25.225 28.105 25.695 27.6309C26.165 27.1568 26.4 26.5868 26.4 25.9211C26.4 25.2553 26.165 24.6853 25.695 24.2112C25.225 23.7371 24.66 23.5 24 23.5C23.34 23.5 22.775 23.7371 22.305 24.2112C21.835 24.6853 21.6 25.2553 21.6 25.9211C21.6 26.5868 21.835 27.1568 22.305 27.6309C22.775 28.105 23.34 28.3421 24 28.3421ZM14.4 35C13.74 35 13.175 34.7629 12.705 34.2888C12.235 33.8147 12 33.2447 12 32.5789V19.2632C12 18.5974 12.235 18.0274 12.705 17.5533C13.175 17.0792 13.74 16.8421 14.4 16.8421H19.2V14.4211C19.2 13.7553 19.435 13.1853 19.905 12.7112C20.375 12.2371 20.94 12 21.6 12H26.4C27.06 12 27.625 12.2371 28.095 12.7112C28.565 13.1853 28.8 13.7553 28.8 14.4211V16.8421H33.6C34.26 16.8421 34.825 17.0792 35.295 17.5533C35.765 18.0274 36 18.5974 36 19.2632V32.5789C36 33.2447 35.765 33.8147 35.295 34.2888C34.825 34.7629 34.26 35 33.6 35H14.4ZM14.4 32.5789H33.6V19.2632H14.4V32.5789ZM21.6 16.8421H26.4V14.4211H21.6V16.8421Z" fill="white"/>
</svg>
