<svg width="48" height="48" viewBox="0 0 48 48" fill="none" xmlns="http://www.w3.org/2000/svg">
<rect width="48" height="48" rx="8" fill="#FA9F43"/>
<path d="M18.6924 27.4343H28.3076V26.9716C28.3076 26.1089 27.8737 25.4311 27.0059 24.9382C26.1379 24.4454 24.9693 24.199 23.5 24.199C22.0307 24.199 20.8621 24.4454 19.9941 24.9382C19.1263 25.4311 18.6924 26.1089 18.6924 26.9716V27.4343ZM23.5 22.5069C24.1393 22.5069 24.6829 22.2866 25.1309 21.8459C25.5787 21.4055 25.8026 20.8709 25.8026 20.2422C25.8026 19.6133 25.5787 19.0786 25.1309 18.6381C24.6829 18.1977 24.1393 17.9775 23.5 17.9775C22.8607 17.9775 22.3171 18.1977 21.8691 18.6381C21.4213 19.0786 21.1974 19.6133 21.1974 20.2422C21.1974 20.8709 21.4213 21.4055 21.8691 21.8459C22.3171 22.2866 22.8607 22.5069 23.5 22.5069ZM18.8947 35V32.4118H13.3786C12.7139 32.4118 12.1513 32.1853 11.6908 31.7324C11.2303 31.2794 11 30.7261 11 30.0723V15.3394C11 14.6857 11.2303 14.1324 11.6908 13.6794C12.1513 13.2265 12.7139 13 13.3786 13H33.6214C34.2861 13 34.8487 13.2265 35.3092 13.6794C35.7697 14.1324 36 14.6857 36 15.3394V30.0723C36 30.7261 35.7697 31.2794 35.3092 31.7324C34.8487 32.1853 34.2861 32.4118 33.6214 32.4118H28.1053V35H18.8947ZM13.3786 30.4706H33.6214C33.7227 30.4706 33.8155 30.4291 33.8997 30.346C33.9841 30.2632 34.0263 30.172 34.0263 30.0723V15.3394C34.0263 15.2398 33.9841 15.1486 33.8997 15.0657C33.8155 14.9827 33.7227 14.9412 33.6214 14.9412H13.3786C13.2773 14.9412 13.1845 14.9827 13.1003 15.0657C13.0159 15.1486 12.9737 15.2398 12.9737 15.3394V30.0723C12.9737 30.172 13.0159 30.2632 13.1003 30.346C13.1845 30.4291 13.2773 30.4706 13.3786 30.4706Z" fill="white"/>
</svg>
