<svg width="48" height="48" viewBox="0 0 48 48" fill="none" xmlns="http://www.w3.org/2000/svg">
<rect width="48" height="48" rx="8" fill="#F6F7FF"/>
<path d="M10.5 16.9412V14.5521C10.5 13.8389 10.7487 13.2353 11.2461 12.7412C11.7434 12.2471 12.351 12 13.0689 12H34.9311C35.649 12 36.2566 12.2471 36.7539 12.7412C37.2513 13.2353 37.5 13.8389 37.5 14.5521V16.9412H35.3684V14.5521C35.3684 14.4253 35.3274 14.3212 35.2455 14.2398C35.1636 14.1584 35.0588 14.1176 34.9311 14.1176H13.0689C12.9412 14.1176 12.8364 14.1584 12.7545 14.2398C12.6726 14.3212 12.6316 14.4253 12.6316 14.5521V16.9412H10.5ZM19.0263 36V33.1765H13.0689C12.351 33.1765 11.7434 32.9294 11.2461 32.4353C10.7487 31.9412 10.5 31.3375 10.5 30.6244V28.2353H12.6316V30.6244C12.6316 30.7512 12.6726 30.8553 12.7545 30.9367C12.8364 31.0181 12.9412 31.0588 13.0689 31.0588H34.9311C35.0588 31.0588 35.1636 31.0181 35.2455 30.9367C35.3274 30.8553 35.3684 30.7512 35.3684 30.6244V28.2353H37.5V30.6244C37.5 31.3375 37.2513 31.9412 36.7539 32.4353C36.2566 32.9294 35.649 33.1765 34.9311 33.1765H28.9737V36H19.0263ZM13.4952 22.5882L17.19 18.9176L15.6922 17.43L10.5 22.5882L15.6922 27.7465L17.19 26.2588L13.4952 22.5882ZM34.5048 22.5882L30.81 26.2588L32.3078 27.7465L37.5 22.5882L32.3078 17.43L30.81 18.9176L34.5048 22.5882Z" fill="#0037CA"/>
</svg>
