<svg width="48" height="48" viewBox="0 0 48 48" fill="none" xmlns="http://www.w3.org/2000/svg">
<rect width="48" height="48" rx="8" fill="#F6F7FF"/>
<path d="M12.8468 35C12.191 35 11.6359 34.7735 11.1816 34.3206C10.7272 33.8676 10.5 33.3143 10.5 32.6606V30.2218C10.5 29.568 10.7272 29.0147 11.1816 28.5618C11.6359 28.1088 12.191 27.8824 12.8468 27.8824H20.2242C20.8798 27.8824 21.4348 28.1088 21.8891 28.5618C22.3435 29.0147 22.5707 29.568 22.5707 30.2218V32.6606C22.5707 33.3143 22.3435 33.8676 21.8891 34.3206C21.4348 34.7735 20.8798 35 20.2242 35H12.8468ZM27.7761 35C27.1203 35 26.5652 34.7735 26.1109 34.3206C25.6565 33.8676 25.4293 33.3143 25.4293 32.6606V15.3394C25.4293 14.6857 25.6565 14.1324 26.1109 13.6794C26.5652 13.2265 27.1203 13 27.7761 13H35.1532C35.809 13 36.3641 13.2265 36.8184 13.6794C37.2728 14.1324 37.5 14.6857 37.5 15.3394V32.6606C37.5 33.3143 37.2728 33.8676 36.8184 34.3206C36.3641 34.7735 35.809 35 35.1532 35H27.7761ZM12.8468 33.0588H20.2242C20.3406 33.0588 20.4362 33.0215 20.5111 32.9469C20.5862 32.8723 20.6237 32.7768 20.6237 32.6606V30.2218C20.6237 30.1055 20.5862 30.0101 20.5111 29.9355C20.4362 29.8608 20.3406 29.8235 20.2242 29.8235H12.8468C12.7302 29.8235 12.6345 29.8608 12.5596 29.9355C12.4847 30.0101 12.4473 30.1055 12.4473 30.2218V32.6606C12.4473 32.7768 12.4847 32.8723 12.5596 32.9469C12.6345 33.0215 12.7302 33.0588 12.8468 33.0588ZM27.7761 33.0588H35.1532C35.2698 33.0588 35.3655 33.0215 35.4404 32.9469C35.5153 32.8723 35.5527 32.7768 35.5527 32.6606V15.3394C35.5527 15.2232 35.5153 15.1277 35.4404 15.0531C35.3655 14.9785 35.2698 14.9412 35.1532 14.9412H27.7761C27.6595 14.9412 27.5638 14.9785 27.4889 15.0531C27.4141 15.1277 27.3766 15.2232 27.3766 15.3394V32.6606C27.3766 32.7768 27.4141 32.8723 27.4889 32.9469C27.5638 33.0215 27.6595 33.0588 27.7761 33.0588ZM31.4585 31.3914C31.7763 31.3914 32.043 31.2839 32.2585 31.0691C32.474 30.8543 32.5818 30.5885 32.5818 30.2716C32.5818 29.963 32.474 29.6991 32.2585 29.4799C32.043 29.261 31.7763 29.1516 31.4585 29.1516C31.1489 29.1516 30.8843 29.261 30.6646 29.4799C30.4448 29.6991 30.3349 29.963 30.3349 30.2716C30.3349 30.5885 30.4448 30.8543 30.6646 31.0691C30.8843 31.2839 31.1489 31.3914 31.4585 31.3914ZM12.8468 25.0453C12.191 25.0453 11.6359 24.8189 11.1816 24.3659C10.7272 23.913 10.5 23.3596 10.5 22.7059V15.3394C10.5 14.6857 10.7272 14.1324 11.1816 13.6794C11.6359 13.2265 12.191 13 12.8468 13H20.2365C20.8923 13 21.4474 13.2265 21.9018 13.6794C22.3562 14.1324 22.5833 14.6857 22.5833 15.3394V22.7059C22.5833 23.3596 22.3562 23.913 21.9018 24.3659C21.4474 24.8189 20.8923 25.0453 20.2365 25.0453H12.8468ZM17.9647 18.7239C18.2825 18.7239 18.5493 18.6144 18.765 18.3955C18.9805 18.1766 19.0883 17.9128 19.0883 17.6041C19.0883 17.2873 18.9805 17.0214 18.765 16.8063C18.5493 16.5915 18.2825 16.4841 17.9647 16.4841C17.6468 16.4841 17.3801 16.5915 17.1646 16.8063C16.9491 17.0214 16.8414 17.2873 16.8414 17.6041C16.8414 17.9128 16.9491 18.1766 17.1646 18.3955C17.3801 18.6144 17.6468 18.7239 17.9647 18.7239ZM12.4473 22.7334L15.1437 19.1221L18.1519 23.1041H20.2365C20.3531 23.1041 20.4489 23.0668 20.5237 22.9922C20.5986 22.9176 20.636 22.8221 20.636 22.7059V15.3394C20.636 15.2232 20.5986 15.1277 20.5237 15.0531C20.4489 14.9785 20.3531 14.9412 20.2365 14.9412H12.8468C12.7302 14.9412 12.6345 14.9785 12.5596 15.0531C12.4847 15.1277 12.4473 15.2232 12.4473 15.3394V22.7334Z" fill="#0037CA"/>
</svg>
