<svg width="48" height="48" viewBox="0 0 48 48" fill="none" xmlns="http://www.w3.org/2000/svg">
<rect width="48" height="48" rx="8" fill="#F6F7FF"/>
<path d="M33.4315 36.39L31.878 34.8365L34.5789 32.0842H27.8526V29.8526H34.5789L31.878 27.1003L33.4315 25.5468L38.8532 30.9684L33.4315 36.39ZM12.6894 32.0842C11.9498 32.0842 11.3166 31.8208 10.79 31.2942C10.2633 30.7675 10 30.1344 10 29.3948V14.6894C10 13.9498 10.2633 13.3166 10.79 12.79C11.3166 12.2633 11.9498 12 12.6894 12H31.8579C32.5975 12 33.2307 12.2633 33.7573 12.79C34.284 13.3166 34.5473 13.9498 34.5473 14.6894V22.5055C34.3614 22.475 34.1754 22.4522 33.9894 22.4371C33.8035 22.4217 33.6175 22.414 33.4315 22.414C33.2456 22.414 33.0596 22.4179 32.8736 22.4255C32.6877 22.4332 32.5017 22.4523 32.3158 22.4828V15.8279L22.1249 23.072L12.2316 15.851V29.3948C12.2316 29.5284 12.2745 29.6381 12.3603 29.7239C12.4461 29.8097 12.5558 29.8526 12.6894 29.8526H24.946C24.9155 30.0386 24.8964 30.2245 24.8887 30.4105C24.881 30.5965 24.8772 30.7824 24.8772 30.9684C24.8772 31.1544 24.8849 31.3403 24.9002 31.5263C24.9154 31.7122 24.9382 31.8982 24.9687 32.0842H12.6894ZM13.7877 14.2316L22.1249 20.3427L30.7139 14.2316H13.7877Z" fill="#0037CA"/>
</svg>
