<svg width="48" height="48" viewBox="0 0 48 48" fill="none" xmlns="http://www.w3.org/2000/svg">
<rect width="48" height="48" rx="8" fill="#F6F7FF"/>
<path d="M13.875 27.7714C12.9318 27.7714 12.1335 27.4395 11.4801 26.7758C10.8267 26.112 10.5 25.301 10.5 24.3429C10.5 23.3847 10.8267 22.5737 11.4801 21.9099C12.1335 21.2462 12.9318 20.9143 13.875 20.9143V17.9078C13.875 17.2259 14.114 16.6423 14.5919 16.1568C15.0698 15.6713 15.6443 15.4286 16.3155 15.4286H20.625C20.625 14.4704 20.9517 13.6594 21.6051 12.9957C22.2585 12.3319 23.0568 12 24 12C24.9432 12 25.7415 12.3319 26.3949 12.9957C27.0483 13.6594 27.375 14.4704 27.375 15.4286H31.6845C32.3557 15.4286 32.9303 15.6713 33.4081 16.1568C33.8861 16.6423 34.125 17.2259 34.125 17.9078V20.9143C35.0682 20.9143 35.8665 21.2462 36.5199 21.9099C37.1733 22.5737 37.5 23.3847 37.5 24.3429C37.5 25.301 37.1733 26.112 36.5199 26.7758C35.8665 27.4395 35.0682 27.7714 34.125 27.7714V33.5208C34.125 34.2026 33.8861 34.7863 33.4081 35.2718C32.9303 35.7573 32.3557 36 31.6845 36H16.3155C15.6443 36 15.0698 35.7573 14.5919 35.2718C14.114 34.7863 13.875 34.2026 13.875 33.5208V27.7714ZM19.9483 25.3714C20.4168 25.3714 20.8154 25.2049 21.1441 24.8719C21.473 24.5389 21.6375 24.1345 21.6375 23.6589C21.6375 23.183 21.4736 22.7781 21.1458 22.4441C20.8179 22.1099 20.4199 21.9429 19.9517 21.9429C19.4832 21.9429 19.0847 22.1094 18.7559 22.4424C18.427 22.7754 18.2625 23.1798 18.2625 23.6554C18.2625 24.1313 18.4264 24.5362 18.7542 24.8702C19.0821 25.2043 19.4801 25.3714 19.9483 25.3714ZM28.0483 25.3714C28.5168 25.3714 28.9154 25.2049 29.2441 24.8719C29.573 24.5389 29.7375 24.1345 29.7375 23.6589C29.7375 23.183 29.5736 22.7781 29.2458 22.4441C28.9179 22.1099 28.5199 21.9429 28.0517 21.9429C27.5832 21.9429 27.1847 22.1094 26.8559 22.4424C26.527 22.7754 26.3625 23.1798 26.3625 23.6554C26.3625 24.1313 26.5264 24.5362 26.8542 24.8702C27.1821 25.2043 27.5801 25.3714 28.0483 25.3714ZM18.9375 30.8571H29.0625V28.8H18.9375V30.8571ZM16.3155 33.9429H31.6845C31.8058 33.9429 31.9054 33.9033 31.9832 33.8242C32.0611 33.7451 32.1 33.644 32.1 33.5208V17.9078C32.1 17.7846 32.0611 17.6834 31.9832 17.6043C31.9054 17.5253 31.8058 17.4857 31.6845 17.4857H16.3155C16.1942 17.4857 16.0946 17.5253 16.0168 17.6043C15.9389 17.6834 15.9 17.7846 15.9 17.9078V33.5208C15.9 33.644 15.9389 33.7451 16.0168 33.8242C16.0946 33.9033 16.1942 33.9429 16.3155 33.9429Z" fill="#0037CA"/>
</svg>
