<svg width="36" height="35" viewBox="0 0 36 35" fill="none" xmlns="http://www.w3.org/2000/svg">
<rect width="36" height="35" rx="17.5" fill="white"/>
<path d="M27.5931 12.7011C27.3633 11.8439 26.6888 11.1674 25.8324 10.9366C24.2675 10.507 18.0069 10.5 18.0069 10.5C18.0069 10.5 11.7474 10.493 10.1815 10.9037C9.34205 11.1325 8.64854 11.8239 8.41671 12.6801C8.004 14.2448 8 17.49 8 17.49C8 17.49 7.996 20.7512 8.40571 22.2999C8.63555 23.1561 9.31008 23.8326 10.1675 24.0634C11.7484 24.493 17.9919 24.5 17.9919 24.5C17.9919 24.5 24.2525 24.507 25.8174 24.0973C26.6728 23.8675 27.3503 23.1921 27.5831 22.3359C27.9969 20.7722 27.9999 17.528 27.9999 17.528C27.9999 17.528 28.0198 14.2658 27.5931 12.7011ZM16.0043 20.4964L16.0093 14.5016L21.2127 17.504L16.0043 20.4964Z" fill="#D61616"/>
</svg>
